HIERARCHY
ROOT mixamorig:Hips
{
	OFFSET -0.000008 104.274872 1.554316
	CHANNELS 6 Xposition Yposition Zposition Xrotation Yrotation Zrotation
	JOINT mixamorig:Spine
	{
		OFFSET -0.000005 10.181595 0.131519
		CHANNELS 6 Xposition Yposition Zposition Xrotation Yrotation Zrotation
		JOINT mixamorig:Spine1
		{
			OFFSET -0.000000 9.893959 -1.470707
			CHANNELS 6 Xposition Yposition Zposition Xrotation Yrotation Zrotation
			JOINT mixamorig:Spine2
			{
				OFFSET -0.000000 9.220757 -1.370641
				CHANNELS 6 Xposition Yposition Zposition Xrotation Yrotation Zrotation
				JOINT mixamorig:Neck
				{
					OFFSET 0.000001 16.740417 -2.049036
					CHANNELS 6 Xposition Yposition Zposition Xrotation Yrotation Zrotation
					JOINT mixamorig:Head
					{
						OFFSET 0.000000 9.617874 1.685006
						CHANNELS 6 Xposition Yposition Zposition Xrotation Yrotation Zrotation
						JOINT mixamorig:HeadTop_End
						{
							OFFSET 0.000002 22.037354 7.501101
							CHANNELS 6 Xposition Yposition Zposition Xrotation Yrotation Zrotation
							End Site
							{
								OFFSET 0.000168 2310.654297 -282.823242
							}
						}
					}
				}
				JOINT mixamorig:RightShoulder
				{
					OFFSET -4.569970 11.014908 -2.160885
					CHANNELS 6 Xposition Yposition Zposition Xrotation Yrotation Zrotation
					JOINT mixamorig:RightArm
					{
						OFFSET -10.592851 -0.524811 -2.232101
						CHANNELS 6 Xposition Yposition Zposition Xrotation Yrotation Zrotation
						JOINT mixamorig:RightForeArm
						{
							OFFSET -27.841511 0.000031 -0.000004
							CHANNELS 6 Xposition Yposition Zposition Xrotation Yrotation Zrotation
							JOINT mixamorig:RightHand
							{
								OFFSET -28.328831 -0.000015 0.000015
								CHANNELS 6 Xposition Yposition Zposition Xrotation Yrotation Zrotation
								JOINT mixamorig:RightHandThumb1
								{
									OFFSET -2.464806 -1.573990 2.681852
									CHANNELS 6 Xposition Yposition Zposition Xrotation Yrotation Zrotation
									JOINT mixamorig:RightHandThumb2
									{
										OFFSET -3.215179 -1.872803 1.924282
										CHANNELS 6 Xposition Yposition Zposition Xrotation Yrotation Zrotation
										JOINT mixamorig:RightHandThumb3
										{
											OFFSET -2.654831 -1.527969 1.512609
											CHANNELS 6 Xposition Yposition Zposition Xrotation Yrotation Zrotation
											JOINT mixamorig:RightHandThumb4
											{
												OFFSET -2.018814 -1.152008 1.108052
												CHANNELS 6 Xposition Yposition Zposition Xrotation Yrotation Zrotation
												End Site
												{
													OFFSET -188.809540 -114.533607 132.431396
												}
											}
										}
									}
								}
								JOINT mixamorig:RightHandIndex1
								{
									OFFSET -9.108284 -0.517868 2.259835
									CHANNELS 6 Xposition Yposition Zposition Xrotation Yrotation Zrotation
									JOINT mixamorig:RightHandIndex2
									{
										OFFSET -3.699989 0.000000 0.001215
										CHANNELS 6 Xposition Yposition Zposition Xrotation Yrotation Zrotation
										JOINT mixamorig:RightHandIndex3
										{
											OFFSET -2.850006 0.000031 -0.000522
											CHANNELS 6 Xposition Yposition Zposition Xrotation Yrotation Zrotation
											JOINT mixamorig:RightHandIndex4
											{
												OFFSET -2.772186 -0.000015 -0.000020
												CHANNELS 6 Xposition Yposition Zposition Xrotation Yrotation Zrotation
												End Site
												{
													OFFSET -277.218445 0.000000 -0.050231
												}
											}
										}
									}
								}
								JOINT mixamorig:RightHandMiddle1
								{
									OFFSET -9.532516 -0.000031 -0.000023
									CHANNELS 6 Xposition Yposition Zposition Xrotation Yrotation Zrotation
									JOINT mixamorig:RightHandMiddle2
									{
										OFFSET -3.700005 -0.000015 0.003713
										CHANNELS 6 Xposition Yposition Zposition Xrotation Yrotation Zrotation
										JOINT mixamorig:RightHandMiddle3
										{
											OFFSET -2.949974 0.000015 -0.002054
											CHANNELS 6 Xposition Yposition Zposition Xrotation Yrotation Zrotation
											JOINT mixamorig:RightHandMiddle4
											{
												OFFSET -2.946640 0.000000 -0.000156
												CHANNELS 6 Xposition Yposition Zposition Xrotation Yrotation Zrotation
												End Site
												{
													OFFSET -294.664337 0.000000 -0.113670
												}
											}
										}
									}
								}
								JOINT mixamorig:RightHandRing1
								{
									OFFSET -9.103600 -0.043076 -1.865134
									CHANNELS 6 Xposition Yposition Zposition Xrotation Yrotation Zrotation
									JOINT mixamorig:RightHandRing2
									{
										OFFSET -3.379288 0.000000 -0.001055
										CHANNELS 6 Xposition Yposition Zposition Xrotation Yrotation Zrotation
										JOINT mixamorig:RightHandRing3
										{
											OFFSET -2.889687 -0.000015 0.000379
											CHANNELS 6 Xposition Yposition Zposition Xrotation Yrotation Zrotation
											JOINT mixamorig:RightHandRing4
											{
												OFFSET -2.638809 -0.000015 0.000941
												CHANNELS 6 Xposition Yposition Zposition Xrotation Yrotation Zrotation
												End Site
												{
													OFFSET -263.880371 0.000000 0.516020
												}
											}
										}
									}
								}
								JOINT mixamorig:RightHandPinky1
								{
									OFFSET -8.076683 -0.486710 -3.806280
									CHANNELS 6 Xposition Yposition Zposition Xrotation Yrotation Zrotation
									JOINT mixamorig:RightHandPinky2
									{
										OFFSET -3.600014 -0.000015 -0.003747
										CHANNELS 6 Xposition Yposition Zposition Xrotation Yrotation Zrotation
										JOINT mixamorig:RightHandPinky3
										{
											OFFSET -2.099983 0.000000 -0.005739
											CHANNELS 6 Xposition Yposition Zposition Xrotation Yrotation Zrotation
											JOINT mixamorig:RightHandPinky4
											{
												OFFSET -2.115768 -0.000031 -0.003680
												CHANNELS 6 Xposition Yposition Zposition Xrotation Yrotation Zrotation
												End Site
												{
													OFFSET -211.577087 0.000000 -0.350686
												}
											}
										}
									}
								}
							}
						}
					}
				}
				JOINT mixamorig:LeftShoulder
				{
					OFFSET 4.570447 11.014725 -2.160855
					CHANNELS 6 Xposition Yposition Zposition Xrotation Yrotation Zrotation
					JOINT mixamorig:LeftArm
					{
						OFFSET 10.592371 -0.524597 -2.232119
						CHANNELS 6 Xposition Yposition Zposition Xrotation Yrotation Zrotation
						JOINT mixamorig:LeftForeArm
						{
							OFFSET 27.841532 -0.000031 0.000026
							CHANNELS 6 Xposition Yposition Zposition Xrotation Yrotation Zrotation
							JOINT mixamorig:LeftHand
							{
								OFFSET 28.328846 -0.000061 0.000022
								CHANNELS 6 Xposition Yposition Zposition Xrotation Yrotation Zrotation
								JOINT mixamorig:LeftHandThumb1
								{
									OFFSET 2.466141 -1.576172 2.681732
									CHANNELS 6 Xposition Yposition Zposition Xrotation Yrotation Zrotation
									JOINT mixamorig:LeftHandThumb2
									{
										OFFSET 3.217812 -1.872070 1.916482
										CHANNELS 6 Xposition Yposition Zposition Xrotation Yrotation Zrotation
										JOINT mixamorig:LeftHandThumb3
										{
											OFFSET 2.656029 -1.528778 1.514513
											CHANNELS 6 Xposition Yposition Zposition Xrotation Yrotation Zrotation
											JOINT mixamorig:LeftHandThumb4
											{
												OFFSET 2.020889 -1.154053 1.115139
												CHANNELS 6 Xposition Yposition Zposition Xrotation Yrotation Zrotation
												End Site
												{
													OFFSET 190.885437 -115.081749 130.048782
												}
											}
										}
									}
								}
								JOINT mixamorig:LeftHandIndex1
								{
									OFFSET 9.109314 -0.518021 2.259871
									CHANNELS 6 Xposition Yposition Zposition Xrotation Yrotation Zrotation
									JOINT mixamorig:LeftHandIndex2
									{
										OFFSET 3.699989 0.000000 -0.000322
										CHANNELS 6 Xposition Yposition Zposition Xrotation Yrotation Zrotation
										JOINT mixamorig:LeftHandIndex3
										{
											OFFSET 2.850006 0.000000 0.000352
											CHANNELS 6 Xposition Yposition Zposition Xrotation Yrotation Zrotation
											JOINT mixamorig:LeftHandIndex4
											{
												OFFSET 2.774864 -0.000031 -0.000027
												CHANNELS 6 Xposition Yposition Zposition Xrotation Yrotation Zrotation
												End Site
												{
													OFFSET 277.486267 0.000000 -0.009857
												}
											}
										}
									}
								}
								JOINT mixamorig:LeftHandMiddle1
								{
									OFFSET 9.533394 0.000061 0.000044
									CHANNELS 6 Xposition Yposition Zposition Xrotation Yrotation Zrotation
									JOINT mixamorig:LeftHandMiddle2
									{
										OFFSET 3.699989 -0.000015 -0.000231
										CHANNELS 6 Xposition Yposition Zposition Xrotation Yrotation Zrotation
										JOINT mixamorig:LeftHandMiddle3
										{
											OFFSET 2.949997 -0.000015 -0.000059
											CHANNELS 6 Xposition Yposition Zposition Xrotation Yrotation Zrotation
											JOINT mixamorig:LeftHandMiddle4
											{
												OFFSET 2.952896 0.000031 0.000063
												CHANNELS 6 Xposition Yposition Zposition Xrotation Yrotation Zrotation
												End Site
												{
													OFFSET 295.289337 0.000000 0.022810
												}
											}
										}
									}
								}
								JOINT mixamorig:LeftHandRing1
								{
									OFFSET 9.104523 -0.042999 -1.865074
									CHANNELS 6 Xposition Yposition Zposition Xrotation Yrotation Zrotation
									JOINT mixamorig:LeftHandRing2
									{
										OFFSET 3.150009 -0.000031 0.000043
										CHANNELS 6 Xposition Yposition Zposition Xrotation Yrotation Zrotation
										JOINT mixamorig:LeftHandRing3
										{
											OFFSET 2.949982 -0.000015 0.000040
											CHANNELS 6 Xposition Yposition Zposition Xrotation Yrotation Zrotation
											JOINT mixamorig:LeftHandRing4
											{
												OFFSET 2.644348 0.000000 0.000057
												CHANNELS 6 Xposition Yposition Zposition Xrotation Yrotation Zrotation
												End Site
												{
													OFFSET 264.434631 0.000000 0.012105
												}
											}
										}
									}
								}
								JOINT mixamorig:LeftHandPinky1
								{
									OFFSET 8.077789 -0.486847 -3.806259
									CHANNELS 6 Xposition Yposition Zposition Xrotation Yrotation Zrotation
									JOINT mixamorig:LeftHandPinky2
									{
										OFFSET 3.599953 0.000031 0.014727
										CHANNELS 6 Xposition Yposition Zposition Xrotation Yrotation Zrotation
										JOINT mixamorig:LeftHandPinky3
										{
											OFFSET 2.100021 0.000015 0.007705
											CHANNELS 6 Xposition Yposition Zposition Xrotation Yrotation Zrotation
											JOINT mixamorig:LeftHandPinky4
											{
												OFFSET 2.125504 0.000031 0.007517
												CHANNELS 6 Xposition Yposition Zposition Xrotation Yrotation Zrotation
												End Site
												{
													OFFSET 212.550781 0.000000 0.625752
												}
											}
										}
									}
								}
							}
						}
					}
				}
			}
		}
	}
	JOINT mixamorig:RightUpLeg
	{
		OFFSET -8.207787 -6.751648 -1.599560
		CHANNELS 6 Xposition Yposition Zposition Xrotation Yrotation Zrotation
		JOINT mixamorig:RightLeg
		{
			OFFSET -0.000002 -44.370117 0.345942
			CHANNELS 6 Xposition Yposition Zposition Xrotation Yrotation Zrotation
			JOINT mixamorig:RightFoot
			{
				OFFSET 0.000003 -44.423679 -3.043532
				CHANNELS 6 Xposition Yposition Zposition Xrotation Yrotation Zrotation
				JOINT mixamorig:RightToeBase
				{
					OFFSET -0.000002 -8.728671 10.710558
					CHANNELS 6 Xposition Yposition Zposition Xrotation Yrotation Zrotation
					JOINT mixamorig:RightToe_End
					{
						OFFSET -0.000001 -0.000679 9.278119
						CHANNELS 6 Xposition Yposition Zposition Xrotation Yrotation Zrotation
						End Site
						{
							OFFSET 0.000000 -0.067690 927.812134
						}
					}
				}
			}
		}
	}
	JOINT mixamorig:LeftUpLeg
	{
		OFFSET 8.207793 -6.751686 -1.599556
		CHANNELS 6 Xposition Yposition Zposition Xrotation Yrotation Zrotation
		JOINT mixamorig:LeftLeg
		{
			OFFSET -0.000004 -44.370014 0.346954
			CHANNELS 6 Xposition Yposition Zposition Xrotation Yrotation Zrotation
			JOINT mixamorig:LeftFoot
			{
				OFFSET -0.000001 -44.423672 -3.044401
				CHANNELS 6 Xposition Yposition Zposition Xrotation Yrotation Zrotation
				JOINT mixamorig:LeftToeBase
				{
					OFFSET -0.000002 -8.728669 10.710558
					CHANNELS 6 Xposition Yposition Zposition Xrotation Yrotation Zrotation
					JOINT mixamorig:LeftToe_End
					{
						OFFSET -0.000003 -0.000679 9.278133
						CHANNELS 6 Xposition Yposition Zposition Xrotation Yrotation Zrotation
						End Site
						{
							OFFSET 0.000000 -0.068021 927.813477
						}
					}
				}
			}
		}
	}
}
MOTION
Frames: 3
Frame Time: 0.033333
0.000006 104.270477 1.554256 0.000010 0.000003 -0.000113 -0.000005 10.181587 0.131522 0.000001 -0.000003 0.000084 -0.000000 9.893967 -1.470711 0.000001 0.000000 -0.000000 -0.000000 9.220802 -1.370642 0.000000 -0.000000 -0.000000 0.000001 16.740433 -2.049030 0.000000 -0.000000 -0.000000 0.000000 9.617859 1.685014 0.000000 0.000000 0.000000 0.000002 22.037384 7.501101 0.000000 -0.000000 0.000000 -4.569968 11.014880 -2.160881 0.000008 0.000001 -0.000038 -10.592801 -0.524846 -2.231758 79.352277 59.642059 -50.859474 -27.841488 -0.000001 0.000588 36.639986 104.461077 -46.276827 -28.328838 0.000007 0.000019 -0.000322 -0.000045 0.000008 -2.464556 -1.574219 2.682065 97.920864 -133.265856 145.994419 -3.214842 -1.872995 1.924597 227.829347 -52.834273 283.796163 -2.654450 -1.528142 1.513090 186.077849 -45.435241 243.287896 -2.018834 -1.151983 1.108066 -0.000006 -0.000005 0.000002 -9.108059 -0.517882 2.260412 178.470644 9.868009 -162.911883 -3.700076 0.000142 0.001696 129.977489 26.899442 -54.226207 -2.850043 0.000207 -0.000514 31.688485 1.474260 -0.418191 -2.772161 -0.000016 -0.000021 0.000001 0.000003 -0.000001 -9.532214 0.000028 0.000555 181.024110 5.913192 -201.384098 -3.700036 0.000378 0.004079 122.079564 2.440750 -4.258013 -2.949959 0.000053 -0.002079 11.072754 -6.133721 0.595355 -2.946631 0.000003 -0.000152 0.000001 -0.000001 -0.000003 -9.103331 -0.042845 -1.864562 182.246700 2.971387 106.036283 -3.378931 -0.000211 -0.000779 -125.530367 -52.006259 -86.895948 -2.889603 -0.000026 0.000356 -11.491646 -20.349266 -2.057746 -2.638811 -0.000015 0.000941 -0.000001 0.000003 -0.000002 -8.076620 -0.486488 -3.805730 177.776027 -0.433236 26.610111 -3.599835 -0.000241 -0.003278 213.004736 -23.128289 -70.488884 -2.099783 -0.000250 -0.005617 -66.932937 -34.301050 -23.260865 -2.115768 -0.000041 -0.003671 0.000000 -0.000001 -0.000003 4.570446 11.014691 -2.160851 -0.000018 0.000010 -0.000021 10.592528 -0.524531 -2.232406 72.103876 -62.434281 47.609168 27.841736 -0.000074 -0.000105 49.976361 -105.930736 63.407392 28.328835 -0.000028 0.000037 0.000023 -0.000087 -0.000001 2.466169 -1.576156 2.681895 -52.602463 10.380243 14.481937 3.217840 -1.871968 1.916558 280.443141 27.144002 28.489754 2.656054 -1.528759 1.514624 93.993580 150.858497 -147.060994 2.020898 -1.154087 1.115140 -0.000002 -0.000001 0.000003 9.109241 -0.517717 2.260097 228.937586 -12.431166 333.096059 3.699915 0.000267 -0.000108 229.502279 -11.817691 -25.325839 2.849946 0.000312 0.000561 -130.858064 -8.302280 -18.037519 2.774891 -0.000015 -0.000023 0.000000 -0.000000 -0.000002 9.533340 0.000329 0.000273 231.141142 -9.561425 340.182544 3.699962 0.000306 -0.000014 233.709402 -5.641351 -11.111733 2.949968 0.000250 0.000154 -119.906922 -7.668809 -13.222296 2.952873 -0.000045 0.000065 0.000003 0.000000 0.000000 9.104479 -0.042733 -1.864834 234.458346 -7.019712 346.402688 3.150028 0.000264 0.000251 -120.803575 3.448595 6.064347 2.949996 0.000216 0.000257 -108.701054 4.650722 6.478636 2.644318 0.000016 0.000057 -0.000001 0.000001 -0.000000 8.077756 -0.486602 -3.806025 238.471957 -5.278730 -10.153933 3.599977 0.000258 0.014970 -114.736441 6.742743 9.780666 2.100043 0.000209 0.007923 -111.377094 11.369005 15.900057 2.125498 0.000001 0.007513 0.000001 0.000000 -0.000001 -8.207786 -6.751667 -1.599560 -0.077001 -0.000003 0.000080 -0.000002 -44.370110 0.345938 0.153719 -0.000000 -0.000000 0.000000 -44.423679 -3.043532 -0.076700 0.000000 -0.000002 -0.000006 -8.728667 10.710559 -0.000009 -0.000000 -0.000000 -0.000001 -0.000679 9.278123 0.000000 -0.000000 -0.000000 8.207792 -6.751710 -1.599556 -0.074518 -0.000003 0.000081 -0.000002 -44.370014 0.346960 0.148822 0.000002 0.000000 -0.000001 -44.423664 -3.044403 -0.074314 0.000000 -0.000002 -0.000004 -8.728671 10.710558 0.000007 -0.000000 -0.000000 0.000000 -0.000680 9.278137 -0.000000 0.000000 -0.000001 
0.000006 104.270477 1.554256 0.000010 0.000003 -0.000113 -0.000005 10.181587 0.131522 0.000001 -0.000003 0.000084 -0.000000 9.893967 -1.470711 0.000001 0.000000 -0.000000 -0.000000 9.220802 -1.370642 0.000000 -0.000000 -0.000000 0.000001 16.740433 -2.049030 0.000000 -0.000000 -0.000000 0.000000 9.617859 1.685014 0.000000 0.000000 0.000000 0.000002 22.037384 7.501101 0.000000 -0.000000 0.000000 -4.569968 11.014880 -2.160881 0.000008 0.000001 -0.000038 -10.592791 -0.524853 -2.231750 81.596671 61.236819 -54.118259 -27.841503 0.000008 0.000585 41.016266 103.152741 -50.490544 -28.328836 0.000021 0.000027 -0.000322 -0.000044 0.000007 -2.464774 -1.574174 2.682015 120.456424 -172.518270 163.428177 -3.215040 -1.873032 1.924478 279.223215 -25.516248 331.309691 -2.654652 -1.528293 1.512908 261.687469 -34.337161 317.936181 -2.018826 -1.151987 1.108054 -0.000003 0.000002 0.000002 -9.108294 -0.517843 2.260387 224.417299 11.777631 -331.583445 -3.700021 -0.000088 0.001723 241.346319 11.303215 18.921186 -2.850027 -0.000146 -0.000136 -95.058441 1.126908 1.230215 -2.772169 -0.000015 -0.000022 0.000001 -0.000001 -0.000001 -9.532499 -0.000056 0.000520 227.781495 8.071924 -341.695486 -3.700000 -0.000156 0.004130 254.678848 -1.432576 -1.985097 -2.949948 -0.000211 -0.001778 -79.722159 -10.030868 -8.387864 -2.946623 -0.000003 -0.000158 -0.000002 -0.000000 -0.000001 -9.103612 -0.043077 -1.864599 227.893565 6.910240 15.417607 -3.379227 -0.000249 -0.000683 -101.402334 -9.944604 -12.114220 -2.889624 -0.000241 0.000614 -78.155450 -20.058616 -16.301671 -2.638822 -0.000011 0.000941 0.000001 -0.000000 0.000002 -8.076669 -0.486707 -3.805747 219.757553 4.867066 13.120195 -3.599955 -0.000244 -0.003325 249.737671 -10.252521 -15.197147 -2.099889 -0.000275 -0.005494 -86.614168 -18.843505 -18.020547 -2.115780 -0.000039 -0.003678 -0.000000 -0.000000 -0.000001 4.570446 11.014691 -2.160851 -0.000018 0.000010 -0.000021 10.592533 -0.524524 -2.232401 74.453700 -63.709006 50.542696 27.841736 -0.000074 -0.000107 60.387704 -103.434793 72.798021 28.328833 -0.000012 0.000026 0.000023 -0.000087 -0.000000 2.466162 -1.576145 2.681867 -44.533438 -3.782920 12.254055 3.217855 -1.871943 1.916562 301.628476 7.972188 16.467741 2.656057 -1.528749 1.514636 120.447873 173.498908 -163.147019 2.020896 -1.154065 1.115151 0.000001 0.000001 -0.000003 9.109246 -0.517756 2.260107 241.979997 -13.474164 337.757963 3.699924 0.000242 -0.000107 240.622756 -11.116568 -18.919621 2.849959 0.000274 0.000582 -120.193366 -8.607441 -14.908764 2.774880 -0.000031 -0.000029 0.000001 -0.000001 -0.000000 9.533351 0.000320 0.000271 243.581048 -9.915579 344.074413 3.699965 0.000244 0.000010 243.032884 -8.117080 -13.197840 2.949965 0.000246 0.000172 -117.509279 -8.669973 -14.247084 2.952871 -0.000001 0.000060 0.000001 0.000000 0.000001 9.104486 -0.042772 -1.864857 246.945216 -7.535586 348.622172 3.149982 0.000281 0.000280 -113.240971 -5.872472 -8.904903 2.949947 0.000261 0.000275 -111.567725 -6.542269 -9.610593 2.644318 0.000016 0.000056 -0.000000 -0.000000 -0.000000 8.077748 -0.486623 -3.806025 247.668834 -6.654158 -10.516271 3.599943 0.000272 0.014991 -111.655240 -2.742604 -4.624443 2.099989 0.000265 0.007941 -111.581174 -2.249421 -3.875230 2.125513 -0.000015 0.007517 -0.000002 0.000000 -0.000001 -8.207786 -6.751667 -1.599560 -0.077001 -0.000003 0.000080 -0.000002 -44.370110 0.345938 0.153719 -0.000000 -0.000000 0.000000 -44.423679 -3.043532 -0.076700 0.000000 -0.000002 -0.000006 -8.728667 10.710559 -0.000009 -0.000000 -0.000000 -0.000001 -0.000679 9.278123 0.000000 -0.000000 -0.000000 8.207792 -6.751710 -1.599556 -0.074518 -0.000003 0.000081 -0.000002 -44.370014 0.346960 0.148822 0.000002 0.000000 -0.000001 -44.423664 -3.044403 -0.074314 0.000000 -0.000002 -0.000004 -8.728671 10.710558 0.000007 -0.000000 -0.000000 0.000000 -0.000680 9.278137 -0.000000 0.000000 -0.000001 
0.000006 104.270477 1.554256 0.000010 0.000003 -0.000113 -0.000005 10.181587 0.131522 0.000001 -0.000003 0.000084 -0.000000 9.893967 -1.470711 0.000001 0.000000 -0.000000 -0.000000 9.220802 -1.370642 0.000000 -0.000000 -0.000000 0.000001 16.740433 -2.049030 0.000000 -0.000000 -0.000000 0.000000 9.617859 1.685014 0.000000 0.000000 0.000000 0.000002 22.037384 7.501101 0.000000 -0.000000 0.000000 -4.569968 11.014880 -2.160881 0.000008 0.000001 -0.000038 -10.592783 -0.524851 -2.231755 81.801590 62.560879 -55.514275 -27.841503 0.000012 0.000556 44.766419 101.138928 -53.205493 -28.328835 0.000022 0.000012 -0.000318 -0.000046 0.000009 -2.464908 -1.574089 2.682032 129.399792 -201.799770 166.606851 -3.215207 -1.872942 1.924455 298.040823 6.779809 344.208886 -2.654856 -1.528206 1.512776 294.479508 0.348169 342.352113 -2.018827 -1.152018 1.108053 -0.000007 -0.000003 0.000002 -9.108319 -0.517925 2.260334 241.262772 15.055813 -334.797568 -3.700021 -0.000067 0.001699 243.623886 10.584927 16.963734 -2.850036 -0.000075 -0.000035 -115.225319 5.490929 8.645643 -2.772180 0.000000 -0.000017 -0.000000 -0.000001 0.000001 -9.532524 -0.000063 0.000497 231.220154 11.266162 -336.575658 -3.700014 -0.000103 0.004203 242.484146 3.809944 6.155311 -2.949993 -0.000140 -0.001600 -109.482919 2.009204 2.833603 -2.946633 0.000014 -0.000156 -0.000001 0.000001 0.000000 -9.103632 -0.043082 -1.864602 230.450910 10.627402 22.281230 -3.379280 -0.000091 -0.000562 -117.253557 4.321187 7.103458 -2.889709 -0.000154 0.000829 -107.875297 0.545308 0.804375 -2.638801 -0.000029 0.000941 0.000002 -0.000001 -0.000000 -8.076658 -0.486691 -3.805753 221.132033 10.193644 26.522268 -3.599988 -0.000123 -0.003224 230.434054 2.864647 5.454948 -2.099987 -0.000162 -0.005298 -118.198445 -1.062852 -2.119590 -2.115776 -0.000041 -0.003680 0.000001 0.000001 -0.000003 4.570446 11.014691 -2.160851 -0.000018 0.000010 -0.000021 10.592538 -0.524528 -2.232403 76.166090 -65.095876 53.143496 27.841743 -0.000052 -0.000122 70.595189 -100.942894 81.257449 28.328829 -0.000013 0.000029 0.000018 -0.000087 0.000001 2.466172 -1.576155 2.681881 -35.532755 -16.084494 11.649745 3.217843 -1.871936 1.916597 313.775311 -5.703139 12.594712 2.656047 -1.528731 1.514650 137.050860 191.484763 -168.053116 2.020880 -1.154075 1.115148 0.000006 0.000004 0.000001 9.109226 -0.517807 2.260124 249.525498 -23.620572 326.474682 3.699899 0.000245 -0.000096 245.932135 -20.691718 -31.453042 2.849922 0.000264 0.000602 -110.270440 -16.508226 -23.523170 2.774881 -0.000045 -0.000026 -0.000001 0.000004 -0.000001 9.533337 0.000278 0.000290 247.976438 -15.261909 337.528360 3.699955 0.000229 0.000009 248.829611 -11.433784 -16.624838 2.949961 0.000217 0.000177 -109.096754 -12.940093 -18.101921 2.952871 -0.000047 0.000066 0.000000 0.000002 0.000001 9.104481 -0.042791 -1.864825 251.207200 -13.154886 341.702206 3.149963 0.000261 0.000284 -108.307976 -8.968786 -12.393124 2.949941 0.000242 0.000294 -104.809984 -8.833886 -11.459124 2.644325 0.000016 0.000055 0.000000 -0.000000 0.000000 8.077730 -0.486635 -3.806000 251.065022 -12.042336 -17.294321 3.599919 0.000264 0.014987 -109.724407 -7.187596 -10.709683 2.099961 0.000252 0.007956 -107.428166 -7.371442 -10.497214 2.125503 0.000000 0.007515 -0.000000 -0.000002 0.000000 -8.207786 -6.751667 -1.599560 -0.077001 -0.000003 0.000080 -0.000002 -44.370110 0.345938 0.153719 -0.000000 -0.000000 0.000000 -44.423679 -3.043532 -0.076700 0.000000 -0.000002 -0.000006 -8.728667 10.710559 -0.000009 -0.000000 -0.000000 -0.000001 -0.000679 9.278123 0.000000 -0.000000 -0.000000 8.207792 -6.751710 -1.599556 -0.074518 -0.000003 0.000081 -0.000002 -44.370014 0.346960 0.148822 0.000002 0.000000 -0.000001 -44.423664 -3.044403 -0.074314 0.000000 -0.000002 -0.000004 -8.728671 10.710558 0.000007 -0.000000 -0.000000 0.000000 -0.000680 9.278137 -0.000000 0.000000 -0.000001 
